<svg xmlns="http://www.w3.org/2000/svg" viewBox="0 0 1000 520" width="100%" height="100%" style="background:#F8FAFC; border-radius:12px; font-family:'Inter', system-ui, sans-serif;">
  <!-- Window top bar -->
  <rect x="0" y="0" width="1000" height="48" fill="#1E293B"/>
  <circle cx="25" cy="24" r="5" fill="#EF4444"/>
  <circle cx="42" cy="24" r="5" fill="#F59E0B"/>
  <circle cx="59" cy="24" r="5" fill="#10B981"/>
  <text x="500" y="30" fill="#94A3B8" font-size="12" font-weight="600" text-anchor="middle">trebond-frontend.vercel.app/admin/solicitudes — Postulaciones de Alquiler y Scoring Crediticio</text>

  <!-- Top Action Header -->
  <g transform="translate(30, 68)">
    <text x="0" y="24" fill="#262960" font-size="20" font-weight="900">Solicitudes de Alquiler &amp; Scoring</text>
    <text x="0" y="44" fill="#64748B" font-size="12">Revisión de documentación de postulantes, garantes, recibos de sueldo y aprobación a inquilino</text>
  </g>

  <!-- Table Header -->
  <g transform="translate(30, 130)">
    <rect x="0" y="0" width="940" height="40" rx="8" fill="#262960"/>
    <text x="20" y="25" fill="#FFFFFF" font-size="11" font-weight="800">POSTULANTE / DNI</text>
    <text x="250" y="25" fill="#FFFFFF" font-size="11" font-weight="800">INMUEBLE SOLICITADO</text>
    <text x="440" y="25" fill="#FFFFFF" font-size="11" font-weight="800">INGRESOS DECLARADOS</text>
    <text x="610" y="25" fill="#FFFFFF" font-size="11" font-weight="800">SCORING CREDITICIO</text>
    <text x="780" y="25" fill="#FFFFFF" font-size="11" font-weight="800">ACCIÓN / CONVERSIÓN</text>
  </g>

  <!-- Row 1 (Ready to convert) -->
  <g transform="translate(30, 178)">
    <rect x="0" y="0" width="940" height="74" rx="6" fill="#FFFFFF" stroke="#E2E8F0"/>
    <text x="20" y="30" fill="#0F172A" font-size="13" font-weight="800">Carlos Inquilino</text>
    <text x="20" y="50" fill="#64748B" font-size="11">DNI 35.842.190 • carlos@tenant.com</text>

    <text x="250" y="30" fill="#262960" font-size="12.5" font-weight="700">Bv. Oroño 1420 4to A</text>
    <text x="250" y="50" fill="#166534" font-size="11" font-weight="800">Alquiler: $250.000 / mes</text>

    <text x="440" y="30" fill="#0F172A" font-size="12" font-weight="700">$980.000 / mes (Rel. Dep.)</text>
    <text x="440" y="50" fill="#10B981" font-size="10.5" font-weight="700">✓ 3 Recibos validados</text>

    <rect x="610" y="20" width="130" height="34" rx="8" fill="#DCFCE7" stroke="#BBF7D0"/>
    <text x="675" y="36" fill="#166534" font-size="12" font-weight="900" text-anchor="middle">SCORE: 890 / 1000</text>
    <text x="675" y="48" fill="#166534" font-size="9" text-anchor="middle">Riesgo Bajo • BCRA Situación 1</text>

    <rect x="780" y="18" width="145" height="36" rx="8" fill="#16A34A"/>
    <text x="852" y="40" fill="#FFFFFF" font-size="11" font-weight="800" text-anchor="middle">✓ Aprobar Inquilino</text>
  </g>

  <!-- Row 2 (Pending docs) -->
  <g transform="translate(30, 260)">
    <rect x="0" y="0" width="940" height="74" rx="6" fill="#FFFFFF" stroke="#E2E8F0"/>
    <text x="20" y="30" fill="#0F172A" font-size="13" font-weight="800">Luciana Peralta</text>
    <text x="20" y="50" fill="#64748B" font-size="11">DNI 38.109.554 • lu.peralta@gmail.com</text>

    <text x="250" y="30" fill="#262960" font-size="12.5" font-weight="700">Córdoba 2150 2do B</text>
    <text x="250" y="50" fill="#166534" font-size="11" font-weight="800">Alquiler: $310.000 / mes</text>

    <text x="440" y="30" fill="#0F172A" font-size="12" font-weight="700">$750.000 / mes (Monotrib.)</text>
    <text x="440" y="50" fill="#D97706" font-size="10.5" font-weight="700">Falta constancia de garantes</text>

    <rect x="610" y="20" width="130" height="34" rx="8" fill="#FEF3C7" stroke="#FDE68A"/>
    <text x="675" y="36" fill="#B45309" font-size="12" font-weight="900" text-anchor="middle">SCORE: 680 / 1000</text>
    <text x="675" y="48" fill="#B45309" font-size="9" text-anchor="middle">Requiere Garantía CINA</text>

    <rect x="780" y="18" width="145" height="36" rx="8" fill="#0284C7"/>
    <text x="852" y="40" fill="#FFFFFF" font-size="11" font-weight="800" text-anchor="middle">Pedir Documentación</text>
  </g>

  <!-- Row 3 (Rejected) -->
  <g transform="translate(30, 342)">
    <rect x="0" y="0" width="940" height="74" rx="6" fill="#FFFFFF" stroke="#E2E8F0"/>
    <text x="20" y="30" fill="#0F172A" font-size="13" font-weight="800">Gonzalo Varela</text>
    <text x="20" y="50" fill="#64748B" font-size="11">DNI 32.771.802 • gvarela@hotmail.com</text>

    <text x="250" y="30" fill="#262960" font-size="12.5" font-weight="700">Paraguay 850 1er Piso</text>
    <text x="250" y="50" fill="#166534" font-size="11" font-weight="800">Alquiler: $180.000 / mes</text>

    <text x="440" y="30" fill="#0F172A" font-size="12" font-weight="700">$320.000 / mes</text>
    <text x="440" y="50" fill="#DC2626" font-size="10.5" font-weight="700">Relación cuota/ingreso &gt; 50%</text>

    <rect x="610" y="20" width="130" height="34" rx="8" fill="#FEE2E2" stroke="#FECACA"/>
    <text x="675" y="36" fill="#991B1B" font-size="12" font-weight="900" text-anchor="middle">SCORE: 420 / 1000</text>
    <text x="675" y="48" fill="#991B1B" font-size="9" text-anchor="middle">Riesgo Alto • Morosidad Veraz</text>

    <rect x="780" y="18" width="145" height="36" rx="8" fill="#DC2626"/>
    <text x="852" y="40" fill="#FFFFFF" font-size="11" font-weight="800" text-anchor="middle">✕ Rechazada</text>
  </g>
</svg>
